<?xml version="1.0" encoding="UTF-8"?>
<svg version="1.1" xmlns="http://www.w3.org/2000/svg" width="192" height="192">
<path d="M0 0 C0 0.66 0 1.32 0 2 C0.5775 2.268125 1.155 2.53625 1.75 2.8125 C4 4 4 4 5.8125 5.4375 C8.10551702 7.20449339 8.10551702 7.20449339 11.5625 8.4375 C16.29411765 10.58823529 16.29411765 10.58823529 18 14 C18.81360568 16.97635496 19.44874844 19.96487375 20 23 C21.65 23 23.3 23 25 23 C25.80967438 25.91482778 26.21845993 27.46113217 25.0625 30.3125 C24.711875 30.869375 24.36125 31.42625 24 32 C24.66 32.33 25.32 32.66 26 33 C25.50168276 36.68754757 24.89932357 38.60490662 22 41 C22.33 41.66 22.66 42.32 23 43 C23.78407939 52.016913 21.28328658 62.8600561 15.4375 69.875 C14 71 14 71 12 71 C11.855625 72.2375 11.71125 73.475 11.5625 74.75 C11.21311498 77.56504499 10.79620634 80.2701497 10 83 C10.66 83 11.32 83 12 83 C13.3440093 84.99284138 14.67541292 86.99419671 16 89 C19.07063485 92.38557175 22.0116074 94.78422634 26 97 C27 98 27 98 27.37890625 100.19140625 C26.84567792 104.14389256 24.62635679 106.19810734 21.9375 108.9375 C21.43379883 109.46601563 20.93009766 109.99453125 20.41113281 110.5390625 C12.01663086 119.25084543 2.69525381 127.14472913 -9.8125 128.375 C-13 128 -13 128 -14.9375 126.5 C-15.4634375 125.7575 -15.4634375 125.7575 -16 125 C-19.24983135 126.08784968 -19.24983135 126.08784968 -22 128 C-23.99958364 128.04080783 -26.00045254 128.04254356 -28 128 C-28.33 127.01 -28.66 126.02 -29 125 C-29.928125 125.309375 -30.85625 125.61875 -31.8125 125.9375 C-36.98060101 126.73340878 -40.60569584 123.58697986 -44.7421875 120.859375 C-47 119 -47 119 -48 116 C-48.99 115.67 -49.98 115.34 -51 115 C-52.60546875 113.328125 -52.60546875 113.328125 -54.1875 111.25 C-54.71730469 110.57453125 -55.24710938 109.8990625 -55.79296875 109.203125 C-57.28824722 106.47387886 -57.59521847 105.06319749 -57 102 C-54.8828125 99.98046875 -54.8828125 99.98046875 -52.125 98.1875 C-51.22007813 97.58292969 -50.31515625 96.97835937 -49.3828125 96.35546875 C-47 95 -47 95 -45 95 C-44.13617572 92.24293584 -44.13617572 92.24293584 -44 89 C-45.32311383 87.32520886 -46.65828521 85.6599268 -48 84 C-49.08970745 81.69802632 -50.10828657 79.36136017 -51.0625 77 C-53.00411868 72.15507022 -53.00411868 72.15507022 -55.546875 67.62109375 C-57.59259049 63.93110694 -58.32615034 60.16815499 -59.1875 56.0625 C-59.36474609 55.27681641 -59.54199219 54.49113281 -59.72460938 53.68164062 C-60.66368794 49.34882641 -61.03334248 45.44788748 -61 41 C-62.42621684 38.28873616 -62.42621684 38.28873616 -64 36 C-64 35.34 -64 34.68 -64 34 C-62.515 33.505 -62.515 33.505 -61 33 C-61.66 32.34 -62.32 31.68 -63 31 C-63.39764263 29.01178687 -63.73775349 27.01055661 -64 25 C-63.05125 24.67 -62.1025 24.34 -61.125 24 C-57.94450939 22.40703187 -57.94450939 22.40703187 -57.33203125 20.1953125 C-57.06570247 18.79774564 -56.80409414 17.39927212 -56.546875 16 C-55.64079003 12.68631781 -53.63010542 11.07961824 -51 9 C-50.154375 8.67 -49.30875 8.34 -48.4375 8 C-45.82913432 7.18040335 -45.82913432 7.18040335 -44.375 4.75 C-32.52478093 -8.9713063 -14.58941675 -7.64745056 0 0 Z M-42 10 C-43.58116105 12.27786014 -44.75105091 14.50210183 -46 17 C-46.391875 17.639375 -46.78375 18.27875 -47.1875 18.9375 C-49.53236882 24.88985931 -49.13117897 31.70340965 -49 38 C-46.66598484 36.85792848 -44.46949702 35.67446408 -42.25 34.3125 C-38.24869408 32.69658799 -35.04474981 32.62184936 -31 34 C-29.515 35.2684375 -29.515 35.2684375 -28 36.5625 C-25.07251754 38.9410795 -24.45214845 39.42134747 -20.9375 39.625 C-16.17760335 38.86946085 -15.27846067 37.36042219 -12 34 C-6.35925175 32.63530284 -2.37092247 32.80778675 3 35 C3.33 35.99 3.66 36.98 4 38 C5.65 38 7.3 38 9 38 C9.47076069 26.87609921 8.92707633 17.62614885 1.66796875 8.75390625 C-4.4993925 2.26878868 -10.94105343 -0.02398309 -19.875 -0.375 C-28.83988601 -0.19592612 -35.96468355 3.38315566 -42 10 Z M-43 41 C-44.18088423 44.98548426 -44.42601594 47.06682223 -42.6875 50.875 C-41.17274837 53.0895931 -41.17274837 53.0895931 -39 54 C-34.94857881 54.25860135 -33.45662331 54.30441554 -30 52 C-29.03988658 49.02192364 -28.81691672 46.11796381 -29 43 C-30.88146627 40.10543652 -32.25079829 39.2881545 -35.4375 38.0625 C-38.94696529 37.97690329 -40.3778605 38.66920933 -43 41 Z M-12 40 C-13.93703795 42.58271726 -14.01558569 43.80907528 -13.75 47.0625 C-13.13162501 50.16182133 -13.13162501 50.16182133 -11 53 C-7.67583445 54.17761741 -7.67583445 54.17761741 -4 54 C-0.53805838 51.56927503 0.79395747 50.12178713 1.5625 45.9375 C0.86895034 42.31562954 -0.03897503 41.16074795 -3 39 C-6.6623098 37.71819157 -8.82093361 37.69791744 -12 40 Z M-24 45 C-24.65816835 47.11072718 -24.65816835 47.11072718 -25.0625 49.625 C-25.22621094 50.5221875 -25.38992187 51.419375 -25.55859375 52.34375 C-26.09271077 55.55790554 -26.57858118 58.76912238 -27 62 C-25.32511472 63.73647948 -25.32511472 63.73647948 -23 65 C-20.39529669 64.32481546 -20.39529669 64.32481546 -18 63 C-17.01 62.67 -16.02 62.34 -15 62 C-15 61.01 -15 60.02 -15 59 C-13.9790625 59.7115625 -13.9790625 59.7115625 -12.9375 60.4375 C-9.58158044 62.2225636 -6.75838519 62.63153086 -3 63 C-3 63.66 -3 64.32 -3 65 C-2.525625 65.391875 -2.05125 65.78375 -1.5625 66.1875 C0.74665826 68.86612359 0.67554343 71.56076032 1 75 C-0.093125 74.773125 -1.18625 74.54625 -2.3125 74.3125 C-5.87799228 73.62114085 -5.87799228 73.62114085 -7.9375 75.3125 C-9.17760442 76.94972228 -9.17760442 76.94972228 -9 79 C-15.28565982 81.44442326 -21.74341968 83.84068338 -28.3125 81 C-28.869375 80.67 -29.42625 80.34 -30 80 C-30.99 80 -31.98 80 -33 80 C-33.495 78.515 -33.495 78.515 -34 77 C-34.66 77 -35.32 77 -36 77 C-36.495 75.515 -36.495 75.515 -37 74 C-38.98 74 -40.96 74 -43 74 C-42.505 69.545 -42.505 69.545 -42 65 C-41.36191406 64.81824219 -40.72382812 64.63648437 -40.06640625 64.44921875 C-39.24011719 64.19785156 -38.41382813 63.94648437 -37.5625 63.6875 C-36.73878906 63.44386719 -35.91507813 63.20023438 -35.06640625 62.94921875 C-34.38449219 62.63597656 -33.70257813 62.32273437 -33 62 C-32.67 61.01 -32.34 60.02 -32 59 C-33.01320313 58.96132812 -33.01320313 58.96132812 -34.046875 58.921875 C-41.25868726 58.46332046 -41.25868726 58.46332046 -44.5 56.4375 C-46.58626978 53.04731161 -47.21972438 49.90137811 -48 46 C-48.33 46 -48.66 46 -49 46 C-49.62036827 63.2841493 -48.48134779 75.88718504 -37.2421875 89.61328125 C-36.50226563 90.40089844 -35.76234375 91.18851563 -35 92 C-34.34 92 -33.68 92 -33 92 C-32.67 92.99 -32.34 93.98 -32 95 C-26.80540611 97.92195906 -21.91736414 99.26212713 -16 98 C-6.20343638 93.78505085 1.00471498 87.40616343 6 78 C6.78962635 74.92923087 7.37815028 71.85815651 7.9609375 68.7421875 C9.28550235 65.24653138 10.85125704 64.85248626 14 63 C15.45905257 60.29268157 15.45905257 60.29268157 16.3125 57.1875 C16.63863281 56.17042969 16.96476562 55.15335938 17.30078125 54.10546875 C18.00824401 50.96338554 18.12950839 48.20892999 18 45 C17.01 45.33 16.02 45.66 15 46 C14.26676204 48.01508358 14.26676204 48.01508358 14 50 C12.35 50.33 10.7 50.66 9 51 C9 49.02 9 47.04 9 45 C8.01 45 7.02 45 6 45 C5.9071875 46.5778125 5.9071875 46.5778125 5.8125 48.1875 C4.86112524 52.6516431 3.41897929 54.0938676 0 57 C-0.33 57.33 -0.66 57.66 -1 58 C-5.8329401 58.63711075 -10.50924389 58.95272711 -14.5625 55.9375 C-17.4242549 52.48871845 -17.50623857 50.36155932 -18 46 C-20.43782818 44.11264915 -21.19098154 43.59549077 -24 45 Z M-29 74 C-26.30464604 77.33425497 -26.30464604 77.33425497 -22.625 77.3125 C-19.28095151 77.02421996 -16.99399122 76.45163211 -14 75 C-14 74.67 -14 74.34 -14 74 C-18.95 74 -23.9 74 -29 74 Z M5 90 C2.65679029 92.52663122 0.39981714 95.12316214 -1.87109375 97.71484375 C-4 100 -4 100 -6 101 C-6 101.66 -6 102.32 -6 103 C-6.57234375 103.26554687 -7.1446875 103.53109375 -7.734375 103.8046875 C-10.1076012 105.05676891 -12.12213286 106.4936352 -14.25 108.125 C-14.95640625 108.66382813 -15.6628125 109.20265625 -16.390625 109.7578125 C-16.92171875 110.16773438 -17.4528125 110.57765625 -18 111 C-17.44008352 114.31697361 -16.59855293 115.71174669 -13.9375 117.75 C-12.968125 118.4925 -11.99875 119.235 -11 120 C-6.8001391 116.17115155 -4.09523868 112.21947577 -1.375 107.25 C-0.98256104 106.54423828 -0.59012207 105.83847656 -0.18579102 105.11132812 C2.48967724 100.19906692 4.54822316 95.41996685 6 90 C5.67 90 5.34 90 5 90 Z M-36 106 C-35.88590407 107.45922693 -35.75834456 108.91740598 -35.625 110.375 C-35.55539063 111.18710938 -35.48578125 111.99921875 -35.4140625 112.8359375 C-35.17107412 115.20334191 -35.17107412 115.20334191 -33 117 C-30.41222792 113.94419026 -30.41222792 113.94419026 -30 110 C-32.94236782 107.78831775 -32.94236782 107.78831775 -36 106 Z " fill="#EEEDED" transform="translate(114,34)"/>
<path d="M0 0 C3.0625 0.25 3.0625 0.25 6.0625 2.25 C5.7325 3.9 5.4025 5.55 5.0625 7.25 C4.340625 7.064375 3.61875 6.87875 2.875 6.6875 C-0.06576973 6.23004693 -2.07853058 6.51483643 -4.9375 7.25 C-5.0625 4.875 -5.0625 4.875 -4.9375 2.25 C-2.9375 0.25 -2.9375 0.25 0 0 Z " fill="#DBD9D9" transform="translate(77.9375,76.75)"/>
<path d="M0 0 C1.9375 2.375 1.9375 2.375 3 5 C2.67 5.66 2.34 6.32 2 7 C-1.3 7 -4.6 7 -8 7 C-8 5.02 -8 3.04 -8 1 C-5.13879744 -0.43060128 -3.15989415 -0.38692581 0 0 Z " fill="#DDDCDC" transform="translate(110,77)"/>
<path d="M0 0 C4.29 0 8.58 0 13 0 C12.67 1.65 12.34 3.3 12 5 C8.37 5 4.74 5 1 5 C0.67 3.35 0.34 1.7 0 0 Z " fill="#E7E4E5" transform="translate(86,118)"/>
<path d="M0 0 C0 3 0 3 -1.125 4.6875 C-3.76459098 6.53521368 -5.85804073 6.20946395 -9 6 C-9.33 5.34 -9.66 4.68 -10 4 C-9.0925 4.0825 -8.185 4.165 -7.25 4.25 C-3.89958592 4.31024799 -3.89958592 4.31024799 -1.625 2 C-1.08875 1.34 -0.5525 0.68 0 0 Z " fill="#D0CFCF" transform="translate(101,68)"/>
<path d="M0 0 C0.66 0.33 1.32 0.66 2 1 C0.02 2.98 -1.96 4.96 -4 7 C-4.66 6.67 -5.32 6.34 -6 6 C-4 4 -2 2 0 0 Z " fill="#E0DFE0" transform="translate(72,67)"/>
</svg>
